<svg 
  id="fd4f8880-9962-4675-8529-c83a533169cc" 
  data-name="Layer 1" 
  xmlns="http://www.w3.org/2000/svg" 
  viewBox="0 0 240.14 356.23"
>
  <defs>
    <style>
      .b636a7d4-b987-4116-9d3e-ca5feb22cc35 {
        fill:#0c70af;
      }
      
      .fe8ee543-f2b8-4c2a-9e2b-74a99bd40cfc {
        fill:#90c73f;
      }
    </style>
  </defs>
  <title>logo</title>
  <path 
    class="fe8ee543-f2b8-4c2a-9e2b-74a99bd40cfc" 
    d="M858.43,513.55c-.15,1.09-.35,2.17-.45,3.26-2.28,24.7-10.9,46.68-27.75,65.19-15.76,17.29-35.06,28.85-57.32,35.67a145.29,145.29,0,0,1-30.27,6c-7.12.61-14.28.81-21.42,1.13a1.31,1.31,0,0,0-1.47,1.13A47.93,47.93,0,0,0,718.39,643a72.13,72.13,0,0,0,7.79,27.26A48.79,48.79,0,0,0,739,686.58a1.54,1.54,0,0,1,.46.74,58.17,58.17,0,0,1-11.13-7.75C714,667,705.82,651.12,703.43,632.28a103.3,103.3,0,0,1-.87-13.38c0-5.83,2.63-10.3,8.18-12.7a36.11,36.11,0,0,1,5.7-2.17c4.84-1.19,9.75-2.13,14.61-3.25a127.72,127.72,0,0,0,84-66.56,98.23,98.23,0,0,0,10.32-38.4c.82-15.6-1.21-30.76-8.16-44.92-8.64-17.59-22.91-27.55-42.29-30.24-1.23-.17-2.46-.3-3.69-.41s-2.47-.16-3.7-.23l0-.3c2.53-.47,5.05-1.08,7.61-1.4,23.65-3,43.29,5.14,59.59,22a79.81,79.81,0,0,1,21,40.79c1.13,5.67,1.66,11.46,2.47,17.19a7,7,0,0,0,.24.87Z" 
    transform="translate(-618.29 -334.13)"
  />
  <path 
    class="b636a7d4-b987-4116-9d3e-ca5feb22cc35" 
    d="M782.68,335.52a110.08,110.08,0,0,1,.21,24.41,90.41,90.41,0,0,1-12.36,37.49C764.12,408.1,755.74,417,746.22,425c-8.49,7.1-17,14.24-25.19,21.64A89.61,89.61,0,0,0,704.17,467c-10.22,17-11.3,34.84-4.9,53.28,4.87,14,13.39,25.28,26.34,32.88a53.17,53.17,0,0,0,22.82,7.07c8.83.75,17.59.49,26.14-2.05,2.9-.87,5.69-2.11,8.53-3.18a2,2,0,0,1,1.2-.19c-.32.24-.64.49-1,.72-16.93,11.76-35.76,16.38-56.2,15a95.79,95.79,0,0,1-39.2-10.88c-10.82-5.79-19.81-13.59-26.15-24.23A59.31,59.31,0,0,1,653.62,503a88,88,0,0,1,10.87-41,108.62,108.62,0,0,1,25-30.07c12.84-11,27.24-19.55,42.39-26.93A163.91,163.91,0,0,0,753.43,393C769,382.3,778.1,367.52,781.14,349c.67-4.05,1-8.17,1.41-12.26C782.59,336.3,782.63,335.91,782.68,335.52Z" 
    transform="translate(-618.29 -334.13)"
  />
  <path 
    class="b636a7d4-b987-4116-9d3e-ca5feb22cc35" 

    d="M663.55,447a6.83,6.83,0,0,0-1,.68c-13.73,13.16-23.07,28.85-26.87,47.58-3.64,17.9-1.51,35,8.07,50.85,7.38,12.21,18,20.84,30.74,27a97.91,97.91,0,0,0,38,9.4,103,103,0,0,0,45.59-7.73,78.39,78.39,0,0,0,23.77-15.3c.26-.25.55-.47.83-.71l.23.21c-.23.33-.45.68-.71,1a98.5,98.5,0,0,1-32.33,26.26,113.1,113.1,0,0,1-54.74,13.37c-15.86-.24-30.78-4-44.37-12.4-16.61-10.24-27.21-24.77-31-44a81.81,81.81,0,0,1,1.8-37.52c5.73-21,16.61-38.92,33.34-53.06,2.32-1.95,4.87-3.63,7.32-5.42a10,10,0,0,1,.9-.52Z" 
    transform="translate(-618.29 -334.13)"
  />
  <path 
    class="fe8ee543-f2b8-4c2a-9e2b-74a99bd40cfc" 
    d="M717.23,466.63c1.15-1.45,2.24-3,3.45-4.36,9.81-11.34,21.82-19.15,36.54-22.45,10.22-2.28,20.21-1.58,29.57,3.54,8.74,4.78,14.79,12.09,18.82,21.09,4.48,10,5.81,20.61,5.13,31.51a86.31,86.31,0,0,1-9.64,34.74A71,71,0,0,1,790.47,546a4.79,4.79,0,0,0-.54.79l-.31-.22a5.52,5.52,0,0,1,.29-.77,70.45,70.45,0,0,0,7.51-35.49c-.61-13.78-4.44-26.54-13.1-37.51-6.85-8.68-15.43-14.92-26.41-17.39a41.21,41.21,0,0,0-28.28,3.82c-3.86,2-7.39,4.59-11.06,6.92-.36.23-.69.51-1,.77Z" 
    transform="translate(-618.29 -334.13)"
  />
  <path 
    class="fe8ee543-f2b8-4c2a-9e2b-74a99bd40cfc" 
    d="M742,548.52c-2.48-1.26-5.07-2.32-7.4-3.8-12.86-8.15-20.3-19.82-21.8-35-1.15-11.53,2.22-21.68,10.6-29.88a35.09,35.09,0,0,1,21-9.63,36,36,0,0,1,23.22,4.54c8.48,5,13.06,12.55,14,22.32,0,.24,0,.48,0,.72a2.16,2.16,0,0,1-.09.33,3.24,3.24,0,0,1-.33-.35c-5.73-10.31-15.7-13.44-26.68-10.25-5.71,1.66-10.83,4.44-14.62,9.13-3.13,3.88-4.9,8.51-6.24,13.26-3.41,12.07-1,23.23,5.46,33.72.48.79,1,1.56,1.5,2.32s1,1.49,1.54,2.24Z" 
    transform="translate(-618.29 -334.13)"
  />
  <path 
    class="fe8ee543-f2b8-4c2a-9e2b-74a99bd40cfc" 
    d="M717.13,467.26v-.21l.15.05-.17.14Z" 
    transform="translate(-618.29 -334.13)"
  />
  <path 
    class="fe8ee543-f2b8-4c2a-9e2b-74a99bd40cfc" 
    d="M717.11,467.24l-.12.13.14-.11Z" 
    transform="translate(-618.29 -334.13)"
  />
  <path 
    class="b636a7d4-b987-4116-9d3e-ca5feb22cc35" 
    d="M783.32,558.16l.12-.17c0,.08,0,.16,0,.25Z" 
    transform="translate(-618.29 -334.13)"
  />
  <path 
    class="b636a7d4-b987-4116-9d3e-ca5feb22cc35" 
    d="M783.07,558.39l.25-.23.1.08-.2.33A.9.9,0,0,0,783.07,558.39Z" 
    transform="translate(-618.29 -334.13)"
  />
  <path 
    class="b636a7d4-b987-4116-9d3e-ca5feb22cc35" 
    d="M783.22,558.57l-.36,0,.21-.23A.9.9,0,0,1,783.22,558.57Z" 
    transform="translate(-618.29 -334.13)"
  />
</svg>